ffmpeg version 3.4.8-0ubuntu0.2 Copyright (c) 2000-2020 the FFmpeg developers
  built with gcc 7 (Ubuntu 7.5.0-3ubuntu1~18.04)
  configuration: --prefix=/usr --extra-version=0ubuntu0.2 --toolchain=hardened --libdir=/usr/lib/x86_64-linux-gnu --incdir=/usr/include/x86_64-linux-gnu --enable-gpl --disable-stripping --enable-avresample --enable-avisynth --enable-gnutls --enable-ladspa --enable-libass --enable-libbluray --enable-libbs2b --enable-libcaca --enable-libcdio --enable-libflite --enable-libfontconfig --enable-libfreetype --enable-libfribidi --enable-libgme --enable-libgsm --enable-libmp3lame --enable-libmysofa --enable-libopenjpeg --enable-libopenmpt --enable-libopus --enable-libpulse --enable-librubberband --enable-librsvg --enable-libshine --enable-libsnappy --enable-libsoxr --enable-libspeex --enable-libssh --enable-libtheora --enable-libtwolame --enable-libvorbis --enable-libvpx --enable-libwavpack --enable-libwebp --enable-libx265 --enable-libxml2 --enable-libxvid --enable-libzmq --enable-libzvbi --enable-omx --enable-openal --enable-opengl --enable-sdl2 --enable-libdc1394 --enable-libdrm --enable-libiec61883 --enable-chromaprint --enable-frei0r --enable-libopencv --enable-libx264 --enable-shared
  libavutil      55. 78.100 / 55. 78.100
  libavcodec     57.107.100 / 57.107.100
  libavformat    57. 83.100 / 57. 83.100
  libavdevice    57. 10.100 / 57. 10.100
  libavfilter     6.107.100 /  6.107.100
  libavresample   3.  7.  0 /  3.  7.  0
  libswscale      4.  8.100 /  4.  8.100
  libswresample   2.  9.100 /  2.  9.100
  libpostproc    54.  7.100 / 54.  7.100
[rawvideo @ 0x55eed5619a20] Estimating duration from bitrate, this may be inaccurate
Input #0, rawvideo, from '../../SVC-Encoder-20220109T061506Z-001/SVC-Encoder/Dataset/RollerCoaster/ERP_8x8/tile_yuv/Tile_28_480x240.yuv':
  Duration: 00:00:10.00, start: 0.000000, bitrate: 41472 kb/s
    Stream #0:0: Video: rawvideo (I420 / 0x30323449), yuv420p, 480x240, 41472 kb/s, 30 tbr, 30 tbn, 30 tbc
Stream mapping:
  Stream #0:0 -> #0:0 (rawvideo (native) -> h264 (libx264))
Press [q] to stop, [?] for help
[libx264 @ 0x55eed5626c60] using cpu capabilities: MMX2 SSE2Fast LZCNT SSSE3 SSE4.2 AVX
[libx264 @ 0x55eed5626c60] profile High, level 2.1
Output #0, rawvideo, to 'RollerCoaster_Tile_28_480x240_x264_QP_32.h264':
  Metadata:
    encoder         : Lavf57.83.100
    Stream #0:0: Video: h264 (libx264), yuv420p, 480x240, q=-1--1, 30 fps, 30 tbn, 30 tbc
    Metadata:
      encoder         : Lavc57.107.100 libx264
    Side data:
      cpb: bitrate max/min/avg: 0/0/0 buffer size: 0 vbv_delay: -1
frame=  300 fps=0.0 q=38.0 LPSNR=Y:inf U:inf V:inf *:inf size=      21kB time=00:00:09.93 bitrate=  17.0kbits/s speed=  30x    
video:21kB audio:0kB subtitle:0kB other streams:0kB global headers:0kB muxing overhead: 0.000000%
[libx264 @ 0x55eed5626c60] frame I:2     Avg QP:31.07  size:  1060  PSNR Mean Y:46.89 U:48.81 V:49.50 Avg:47.52 Global:47.52
[libx264 @ 0x55eed5626c60] frame P:81    Avg QP:33.68  size:   137  PSNR Mean Y:46.22 U:48.98 V:48.58 Avg:46.90 Global:46.80
[libx264 @ 0x55eed5626c60] frame B:217   Avg QP:37.67  size:    36  PSNR Mean Y:46.25 U:49.06 V:48.58 Avg:46.93 Global:46.83
[libx264 @ 0x55eed5626c60] consecutive B-frames:  1.0%  6.7%  3.0% 89.3%
[libx264 @ 0x55eed5626c60] mb I  I16..4: 18.0% 79.6%  2.4%
[libx264 @ 0x55eed5626c60] mb P  I16..4:  1.2%  2.8%  0.0%  P16..4:  3.8%  1.0%  0.2%  0.0%  0.0%    skip:91.0%
[libx264 @ 0x55eed5626c60] mb B  I16..4:  0.0%  0.0%  0.0%  B16..8:  3.2%  0.1%  0.0%  direct: 0.0%  skip:96.7%  L0:37.4% L1:61.7% BI: 0.9%
[libx264 @ 0x55eed5626c60] 8x8 transform intra:73.9% inter:74.8%
[libx264 @ 0x55eed5626c60] coded y,uvDC,uvAC intra: 3.6% 12.8% 1.8% inter: 0.2% 0.4% 0.0%
[libx264 @ 0x55eed5626c60] i16 v,h,dc,p: 52% 33%  9%  7%
[libx264 @ 0x55eed5626c60] i8 v,h,dc,ddl,ddr,vr,hd,vl,hu:  5%  1% 91%  0%  0%  1%  0%  0%  0%
[libx264 @ 0x55eed5626c60] i4 v,h,dc,ddl,ddr,vr,hd,vl,hu: 21% 16% 36%  3%  6%  8%  3%  5%  2%
[libx264 @ 0x55eed5626c60] i8c dc,h,v,p: 84%  7%  8%  1%
[libx264 @ 0x55eed5626c60] Weighted P-Frames: Y:7.4% UV:0.0%
[libx264 @ 0x55eed5626c60] ref P L0: 71.2% 11.5% 13.0%  4.3%  0.1%
[libx264 @ 0x55eed5626c60] ref B L0: 90.0%  9.4%  0.6%
[libx264 @ 0x55eed5626c60] ref B L1: 91.7%  8.3%
[libx264 @ 0x55eed5626c60] PSNR Mean Y:46.245 U:49.036 V:48.583 Avg:46.924 Global:46.824 kb/s:16.90
